<svg xmlns="http://www.w3.org/2000/svg" xmlns:xlink="http://www.w3.org/1999/xlink" width="1920" zoomAndPan="magnify" viewBox="0 0 1440 809.999993" height="1080" preserveAspectRatio="xMidYMid meet" version="1.0"><defs><g/><clipPath id="7e15cc5e1f"><path d="M 1368.296875 316 L 1371.304688 316 L 1371.304688 318.976562 L 1368.296875 318.976562 Z M 1368.296875 316 " clip-rule="nonzero"/></clipPath><clipPath id="373870a331"><path d="M 1371.300781 316.949219 C 1370.023438 318.976562 1368.824219 318.601562 1368.523438 318.148438 C 1368.300781 317.699219 1368.523438 316.5 1368.898438 316.199219 C 1369.273438 315.898438 1370.925781 316.351562 1370.925781 316.351562 " clip-rule="nonzero"/></clipPath><clipPath id="0ad72ef805"><path d="M 386 153.089844 L 1430 153.089844 L 1430 657 L 386 657 Z M 386 153.089844 " clip-rule="nonzero"/></clipPath><clipPath id="e9fa1eea92"><path d="M 24 153.089844 L 1068 153.089844 L 1068 657 L 24 657 Z M 24 153.089844 " clip-rule="nonzero"/></clipPath></defs><g clip-path="url(#7e15cc5e1f)"><g clip-path="url(#373870a331)"><path fill="#0571d3" d="M 1365.523438 313.199219 L 1374.308594 313.199219 L 1374.308594 321.75 L 1365.523438 321.75 Z M 1365.523438 313.199219 " fill-opacity="1" fill-rule="nonzero"/></g></g><g clip-path="url(#0ad72ef805)"><path fill="#006d77" d="M 1421.660156 377.761719 L 1289.058594 174.0625 C 1288.007812 172.4375 1286.859375 170.878906 1285.613281 169.398438 C 1284.367188 167.914062 1283.035156 166.515625 1281.613281 165.199219 C 1280.191406 163.882812 1278.695312 162.660156 1277.121094 161.53125 C 1275.546875 160.402344 1273.910156 159.375 1272.207031 158.453125 C 1270.503906 157.527344 1268.75 156.714844 1266.945312 156.011719 C 1265.140625 155.308594 1263.300781 154.71875 1261.421875 154.246094 C 1259.542969 153.769531 1257.644531 153.417969 1255.71875 153.179688 C 1253.796875 152.945312 1251.867188 152.832031 1249.929688 152.835938 L 432.835938 152.835938 C 431.304688 152.832031 429.777344 152.902344 428.253906 153.050781 C 426.734375 153.195312 425.222656 153.417969 423.71875 153.710938 C 422.21875 154.007812 420.734375 154.375 419.269531 154.816406 C 417.808594 155.257812 416.367188 155.769531 414.953125 156.355469 C 413.539062 156.9375 412.15625 157.589844 410.808594 158.308594 C 409.457031 159.027344 408.144531 159.8125 406.875 160.664062 C 405.601562 161.511719 404.375 162.421875 403.191406 163.390625 C 402.007812 164.359375 400.875 165.386719 399.792969 166.46875 C 398.710938 167.550781 397.6875 168.683594 396.714844 169.867188 C 395.746094 171.046875 394.835938 172.277344 393.988281 173.546875 C 393.136719 174.820312 392.355469 176.132812 391.632812 177.480469 C 390.914062 178.832031 390.261719 180.214844 389.679688 181.628906 C 389.097656 183.042969 388.582031 184.480469 388.140625 185.945312 C 387.699219 187.410156 387.332031 188.894531 387.035156 190.394531 C 386.742188 191.894531 386.519531 193.40625 386.375 194.929688 C 386.226562 196.453125 386.15625 197.980469 386.160156 199.507812 L 386.160156 609.976562 C 386.160156 611.503906 386.234375 613.027344 386.386719 614.550781 C 386.535156 616.070312 386.757812 617.582031 387.058594 619.082031 C 387.355469 620.582031 387.726562 622.0625 388.171875 623.523438 C 388.613281 624.988281 389.128906 626.425781 389.714844 627.835938 C 390.296875 629.25 390.953125 630.628906 391.671875 631.976562 C 392.394531 633.324219 393.175781 634.632812 394.027344 635.90625 C 394.875 637.175781 395.785156 638.402344 396.753906 639.585938 C 397.726562 640.765625 398.75 641.898438 399.832031 642.976562 C 400.914062 644.058594 402.042969 645.085938 403.226562 646.054688 C 404.40625 647.023438 405.632812 647.933594 406.902344 648.78125 C 408.175781 649.632812 409.484375 650.417969 410.832031 651.136719 C 412.179688 651.859375 413.5625 652.511719 414.972656 653.09375 C 416.386719 653.679688 417.824219 654.195312 419.285156 654.640625 C 420.75 655.082031 422.230469 655.453125 423.730469 655.75 C 425.226562 656.050781 426.738281 656.273438 428.257812 656.421875 C 429.78125 656.574219 431.304688 656.648438 432.835938 656.648438 L 1249.804688 656.648438 C 1251.75 656.648438 1253.691406 656.53125 1255.625 656.289062 C 1257.554688 656.046875 1259.464844 655.683594 1261.351562 655.203125 C 1263.238281 654.71875 1265.089844 654.121094 1266.902344 653.40625 C 1268.714844 652.695312 1270.472656 651.871094 1272.183594 650.933594 C 1273.890625 650 1275.535156 648.960938 1277.113281 647.820312 C 1278.691406 646.679688 1280.191406 645.445312 1281.613281 644.113281 C 1283.039062 642.785156 1284.371094 641.371094 1285.617188 639.875 C 1286.863281 638.375 1288.011719 636.808594 1289.058594 635.167969 L 1421.789062 428.398438 C 1423 426.519531 1424.070312 424.566406 1425 422.53125 C 1425.929688 420.5 1426.707031 418.410156 1427.335938 416.265625 C 1427.964844 414.121094 1428.4375 411.945312 1428.75 409.730469 C 1429.066406 407.519531 1429.21875 405.296875 1429.214844 403.0625 C 1429.207031 400.828125 1429.042969 398.605469 1428.71875 396.394531 C 1428.390625 394.183594 1427.910156 392.003906 1427.269531 389.863281 C 1426.628906 387.722656 1425.839844 385.636719 1424.902344 383.609375 C 1423.960938 381.582031 1422.882812 379.632812 1421.660156 377.761719 Z M 1421.660156 377.761719 " fill-opacity="1" fill-rule="nonzero"/></g><g clip-path="url(#e9fa1eea92)"><path fill="#006d77" d="M 1059.664062 377.761719 L 927.0625 174.0625 C 926.011719 172.4375 924.863281 170.878906 923.617188 169.398438 C 922.371094 167.914062 921.035156 166.515625 919.613281 165.199219 C 918.195312 163.882812 916.695312 162.660156 915.121094 161.53125 C 913.546875 160.402344 911.910156 159.375 910.207031 158.453125 C 908.503906 157.527344 906.75 156.714844 904.945312 156.011719 C 903.140625 155.308594 901.300781 154.71875 899.421875 154.246094 C 897.542969 153.769531 895.644531 153.417969 893.722656 153.179688 C 891.800781 152.945312 889.871094 152.832031 887.933594 152.835938 L 70.835938 152.835938 C 69.304688 152.832031 67.78125 152.902344 66.257812 153.050781 C 64.734375 153.195312 63.222656 153.417969 61.722656 153.710938 C 60.21875 154.007812 58.738281 154.375 57.273438 154.816406 C 55.808594 155.257812 54.367188 155.769531 52.953125 156.355469 C 51.539062 156.9375 50.160156 157.589844 48.808594 158.308594 C 47.457031 159.027344 46.148438 159.8125 44.875 160.664062 C 43.601562 161.511719 42.375 162.421875 41.191406 163.390625 C 40.007812 164.359375 38.878906 165.386719 37.796875 166.46875 C 36.714844 167.550781 35.6875 168.683594 34.71875 169.867188 C 33.746094 171.046875 32.839844 172.277344 31.988281 173.546875 C 31.140625 174.820312 30.355469 176.132812 29.636719 177.480469 C 28.917969 178.832031 28.265625 180.214844 27.679688 181.628906 C 27.097656 183.042969 26.585938 184.480469 26.144531 185.945312 C 25.703125 187.410156 25.332031 188.894531 25.039062 190.394531 C 24.742188 191.894531 24.523438 193.40625 24.375 194.929688 C 24.230469 196.453125 24.160156 197.980469 24.164062 199.507812 L 24.164062 609.976562 C 24.164062 611.503906 24.238281 613.027344 24.386719 614.550781 C 24.539062 616.070312 24.761719 617.582031 25.058594 619.082031 C 25.359375 620.582031 25.730469 622.0625 26.171875 623.523438 C 26.617188 624.988281 27.128906 626.425781 27.714844 627.835938 C 28.300781 629.25 28.953125 630.628906 29.671875 631.976562 C 30.394531 633.324219 31.179688 634.632812 32.027344 635.90625 C 32.878906 637.175781 33.789062 638.402344 34.757812 639.585938 C 35.726562 640.765625 36.753906 641.898438 37.832031 642.976562 C 38.914062 644.058594 40.046875 645.085938 41.226562 646.054688 C 42.410156 647.023438 43.632812 647.933594 44.90625 648.78125 C 46.175781 649.632812 47.484375 650.417969 48.835938 651.136719 C 50.183594 651.859375 51.5625 652.511719 52.976562 653.09375 C 54.386719 653.679688 55.824219 654.195312 57.289062 654.640625 C 58.75 655.082031 60.230469 655.453125 61.730469 655.75 C 63.230469 656.050781 64.738281 656.273438 66.261719 656.421875 C 67.78125 656.574219 69.308594 656.648438 70.835938 656.648438 L 887.804688 656.648438 C 889.753906 656.648438 891.691406 656.53125 893.625 656.289062 C 895.558594 656.046875 897.46875 655.683594 899.355469 655.203125 C 901.242188 654.71875 903.089844 654.121094 904.902344 653.40625 C 906.714844 652.695312 908.476562 651.871094 910.183594 650.933594 C 911.894531 650 913.535156 648.960938 915.113281 647.820312 C 916.691406 646.679688 918.191406 645.445312 919.617188 644.113281 C 921.039062 642.785156 922.375 641.371094 923.621094 639.875 C 924.867188 638.375 926.011719 636.808594 927.0625 635.167969 L 1059.792969 428.398438 C 1061.003906 426.519531 1062.074219 424.566406 1063 422.53125 C 1063.929688 420.5 1064.710938 418.410156 1065.339844 416.265625 C 1065.964844 414.121094 1066.4375 411.945312 1066.753906 409.730469 C 1067.066406 407.519531 1067.222656 405.296875 1067.214844 403.0625 C 1067.210938 400.828125 1067.042969 398.605469 1066.71875 396.394531 C 1066.394531 394.183594 1065.910156 392.003906 1065.269531 389.863281 C 1064.632812 387.722656 1063.84375 385.636719 1062.902344 383.609375 C 1061.964844 381.582031 1060.882812 379.632812 1059.664062 377.761719 Z M 1059.664062 377.761719 " fill-opacity="1" fill-rule="nonzero"/></g><g fill="#edf6f9" fill-opacity="1"><g transform="translate(250.909231, 439.679316)"><g><path d="M 62.734375 -88.71875 L 60.5625 -73.75 L 29.3125 -73.75 L 29.3125 -52.5 L 56.59375 -52.5 L 56.59375 -37.765625 L 29.3125 -37.765625 L 29.3125 -15.109375 L 62.734375 -15.109375 L 62.734375 0 L 8.328125 0 L 8.328125 -88.71875 Z M 62.734375 -88.71875 "/></g></g></g><g fill="#edf6f9" fill-opacity="1"><g transform="translate(318.251114, 439.679316)"><g><path d="M 47.75 -70.15625 C 53.644531 -70.15625 58.253906 -68.363281 61.578125 -64.78125 C 64.910156 -61.195312 66.578125 -56.160156 66.578125 -49.671875 L 66.578125 0 L 46.34375 0 L 46.34375 -46.21875 C 46.34375 -49.632812 45.804688 -52.003906 44.734375 -53.328125 C 43.671875 -54.648438 42.078125 -55.3125 39.953125 -55.3125 C 35.847656 -55.3125 31.921875 -52.363281 28.171875 -46.46875 L 28.171875 0 L 7.9375 0 L 7.9375 -67.984375 L 25.609375 -67.984375 L 27.015625 -59.921875 C 29.921875 -63.335938 33.054688 -65.894531 36.421875 -67.59375 C 39.796875 -69.300781 43.570312 -70.15625 47.75 -70.15625 Z M 47.75 -70.15625 "/></g></g></g><g fill="#edf6f9" fill-opacity="1"><g transform="translate(392.122335, 439.679316)"><g><path d="M 50.578125 -3.203125 C 48.097656 -1.492188 45.210938 -0.171875 41.921875 0.765625 C 38.640625 1.703125 35.378906 2.171875 32.140625 2.171875 C 17.285156 2.085938 9.859375 -6.101562 9.859375 -22.40625 L 9.859375 -53.90625 L 0.25 -53.90625 L 0.25 -67.984375 L 9.859375 -67.984375 L 9.859375 -82.703125 L 30.09375 -85.015625 L 30.09375 -67.984375 L 45.703125 -67.984375 L 43.53125 -53.90625 L 30.09375 -53.90625 L 30.09375 -22.65625 C 30.09375 -19.5 30.601562 -17.238281 31.625 -15.875 C 32.644531 -14.507812 34.265625 -13.828125 36.484375 -13.828125 C 38.796875 -13.828125 41.226562 -14.550781 43.78125 -16 Z M 50.578125 -3.203125 "/></g></g></g><g fill="#edf6f9" fill-opacity="1"><g transform="translate(441.540517, 439.679316)"><g><path d="M 67.21875 -35.34375 C 67.21875 -32.519531 67.085938 -30.082031 66.828125 -28.03125 L 24.703125 -28.03125 C 25.390625 -22.3125 27.015625 -18.300781 29.578125 -16 C 32.140625 -13.695312 35.679688 -12.546875 40.203125 -12.546875 C 42.929688 -12.546875 45.578125 -13.035156 48.140625 -14.015625 C 50.703125 -14.992188 53.476562 -16.507812 56.46875 -18.5625 L 64.78125 -7.296875 C 56.84375 -0.984375 48.007812 2.171875 38.28125 2.171875 C 27.269531 2.171875 18.816406 -1.066406 12.921875 -7.546875 C 7.035156 -14.035156 4.09375 -22.742188 4.09375 -33.671875 C 4.09375 -40.585938 5.328125 -46.796875 7.796875 -52.296875 C 10.273438 -57.804688 13.90625 -62.160156 18.6875 -65.359375 C 23.46875 -68.554688 29.1875 -70.15625 35.84375 -70.15625 C 45.664062 -70.15625 53.347656 -67.082031 58.890625 -60.9375 C 64.441406 -54.789062 67.21875 -46.257812 67.21875 -35.34375 Z M 47.375 -41.09375 C 47.195312 -51.507812 43.523438 -56.71875 36.359375 -56.71875 C 32.859375 -56.71875 30.144531 -55.4375 28.21875 -52.875 C 26.300781 -50.3125 25.128906 -46.085938 24.703125 -40.203125 L 47.375 -40.203125 Z M 47.375 -41.09375 "/></g></g></g><g fill="#edf6f9" fill-opacity="1"><g transform="translate(512.211097, 439.679316)"><g><path d="M 44.8125 -69.90625 C 47.289062 -69.90625 49.550781 -69.609375 51.59375 -69.015625 L 48.390625 -49.421875 C 45.835938 -50.015625 43.789062 -50.3125 42.25 -50.3125 C 38.238281 -50.3125 35.1875 -48.925781 33.09375 -46.15625 C 31 -43.382812 29.359375 -39.222656 28.171875 -33.671875 L 28.171875 0 L 7.9375 0 L 7.9375 -67.984375 L 25.609375 -67.984375 L 27.265625 -54.796875 C 28.804688 -59.492188 31.132812 -63.1875 34.25 -65.875 C 37.363281 -68.5625 40.882812 -69.90625 44.8125 -69.90625 Z M 44.8125 -69.90625 "/></g></g></g><g fill="#edf6f9" fill-opacity="1"><g transform="translate(563.549679, 439.679316)"><g/></g></g><g fill="#edf6f9" fill-opacity="1"><g transform="translate(593.89193, 439.679316)"><g><path d="M 76.953125 -88.71875 L 48.53125 -33.28125 L 48.53125 0 L 27.53125 0 L 27.53125 -33.15625 L -0.890625 -88.71875 L 22.015625 -88.71875 L 38.40625 -49.671875 L 54.796875 -88.71875 Z M 76.953125 -88.71875 "/></g></g></g><g fill="#edf6f9" fill-opacity="1"><g transform="translate(669.939604, 439.679316)"><g><path d="M 37.390625 -70.15625 C 47.796875 -70.15625 55.941406 -66.972656 61.828125 -60.609375 C 67.722656 -54.253906 70.671875 -45.359375 70.671875 -33.921875 C 70.671875 -26.671875 69.328125 -20.332031 66.640625 -14.90625 C 63.953125 -9.488281 60.109375 -5.285156 55.109375 -2.296875 C 50.117188 0.679688 44.210938 2.171875 37.390625 2.171875 C 27.054688 2.171875 18.921875 -1.003906 12.984375 -7.359375 C 7.054688 -13.722656 4.09375 -22.625 4.09375 -34.0625 C 4.09375 -41.3125 5.4375 -47.644531 8.125 -53.0625 C 10.8125 -58.488281 14.648438 -62.691406 19.640625 -65.671875 C 24.640625 -68.660156 30.554688 -70.15625 37.390625 -70.15625 Z M 37.390625 -55.3125 C 33.285156 -55.3125 30.207031 -53.582031 28.15625 -50.125 C 26.113281 -46.664062 25.09375 -41.3125 25.09375 -34.0625 C 25.09375 -26.632812 26.09375 -21.210938 28.09375 -17.796875 C 30.101562 -14.378906 33.203125 -12.671875 37.390625 -12.671875 C 41.484375 -12.671875 44.550781 -14.398438 46.59375 -17.859375 C 48.644531 -21.316406 49.671875 -26.671875 49.671875 -33.921875 C 49.671875 -41.347656 48.664062 -46.769531 46.65625 -50.1875 C 44.65625 -53.601562 41.566406 -55.3125 37.390625 -55.3125 Z M 37.390625 -55.3125 "/></g></g></g><g fill="#edf6f9" fill-opacity="1"><g transform="translate(744.70699, 439.679316)"><g><path d="M 65.296875 0 L 47.75 0 L 46.859375 -8.578125 C 41.910156 -1.410156 35.039062 2.171875 26.25 2.171875 C 20.019531 2.171875 15.300781 0.296875 12.09375 -3.453125 C 8.894531 -7.210938 7.296875 -12.460938 7.296875 -19.203125 L 7.296875 -67.984375 L 27.53125 -67.984375 L 27.53125 -21.765625 C 27.53125 -18.429688 28.0625 -16.101562 29.125 -14.78125 C 30.195312 -13.457031 31.84375 -12.796875 34.0625 -12.796875 C 38.320312 -12.796875 41.988281 -15.441406 45.0625 -20.734375 L 45.0625 -67.984375 L 65.296875 -67.984375 Z M 65.296875 0 "/></g></g></g><g fill="#edf6f9" fill-opacity="1"><g transform="translate(817.938099, 439.679316)"><g><path d="M 44.8125 -69.90625 C 47.289062 -69.90625 49.550781 -69.609375 51.59375 -69.015625 L 48.390625 -49.421875 C 45.835938 -50.015625 43.789062 -50.3125 42.25 -50.3125 C 38.238281 -50.3125 35.1875 -48.925781 33.09375 -46.15625 C 31 -43.382812 29.359375 -39.222656 28.171875 -33.671875 L 28.171875 0 L 7.9375 0 L 7.9375 -67.984375 L 25.609375 -67.984375 L 27.265625 -54.796875 C 28.804688 -59.492188 31.132812 -63.1875 34.25 -65.875 C 37.363281 -68.5625 40.882812 -69.90625 44.8125 -69.90625 Z M 44.8125 -69.90625 "/></g></g></g><g fill="#edf6f9" fill-opacity="1"><g transform="translate(869.276712, 439.679316)"><g/></g></g><g fill="#edf6f9" fill-opacity="1"><g transform="translate(899.618994, 439.679316)"><g><path d="M 33.03125 -88.71875 C 46.945312 -88.71875 58.109375 -85.582031 66.515625 -79.3125 C 74.921875 -73.039062 79.125 -61.539062 79.125 -44.8125 C 79.125 -28.332031 75.023438 -16.742188 66.828125 -10.046875 C 58.640625 -3.347656 48.015625 0 34.953125 0 L 8.328125 0 L 8.328125 -88.71875 Z M 29.3125 -73.484375 L 29.3125 -15.234375 L 36.234375 -15.234375 C 43.148438 -15.234375 48.398438 -17.390625 51.984375 -21.703125 C 55.566406 -26.015625 57.359375 -33.71875 57.359375 -44.8125 C 57.359375 -52.40625 56.460938 -58.289062 54.671875 -62.46875 C 52.878906 -66.65625 50.445312 -69.535156 47.375 -71.109375 C 44.300781 -72.691406 40.503906 -73.484375 35.984375 -73.484375 Z M 29.3125 -73.484375 "/></g></g></g><g fill="#edf6f9" fill-opacity="1"><g transform="translate(982.964176, 439.679316)"><g><path d="M 67.21875 -35.34375 C 67.21875 -32.519531 67.085938 -30.082031 66.828125 -28.03125 L 24.703125 -28.03125 C 25.390625 -22.3125 27.015625 -18.300781 29.578125 -16 C 32.140625 -13.695312 35.679688 -12.546875 40.203125 -12.546875 C 42.929688 -12.546875 45.578125 -13.035156 48.140625 -14.015625 C 50.703125 -14.992188 53.476562 -16.507812 56.46875 -18.5625 L 64.78125 -7.296875 C 56.84375 -0.984375 48.007812 2.171875 38.28125 2.171875 C 27.269531 2.171875 18.816406 -1.066406 12.921875 -7.546875 C 7.035156 -14.035156 4.09375 -22.742188 4.09375 -33.671875 C 4.09375 -40.585938 5.328125 -46.796875 7.796875 -52.296875 C 10.273438 -57.804688 13.90625 -62.160156 18.6875 -65.359375 C 23.46875 -68.554688 29.1875 -70.15625 35.84375 -70.15625 C 45.664062 -70.15625 53.347656 -67.082031 58.890625 -60.9375 C 64.441406 -54.789062 67.21875 -46.257812 67.21875 -35.34375 Z M 47.375 -41.09375 C 47.195312 -51.507812 43.523438 -56.71875 36.359375 -56.71875 C 32.859375 -56.71875 30.144531 -55.4375 28.21875 -52.875 C 26.300781 -50.3125 25.128906 -46.085938 24.703125 -40.203125 L 47.375 -40.203125 Z M 47.375 -41.09375 "/></g></g></g><g fill="#edf6f9" fill-opacity="1"><g transform="translate(1053.634771, 439.679316)"><g><path d="M 50.578125 -3.203125 C 48.097656 -1.492188 45.210938 -0.171875 41.921875 0.765625 C 38.640625 1.703125 35.378906 2.171875 32.140625 2.171875 C 17.285156 2.085938 9.859375 -6.101562 9.859375 -22.40625 L 9.859375 -53.90625 L 0.25 -53.90625 L 0.25 -67.984375 L 9.859375 -67.984375 L 9.859375 -82.703125 L 30.09375 -85.015625 L 30.09375 -67.984375 L 45.703125 -67.984375 L 43.53125 -53.90625 L 30.09375 -53.90625 L 30.09375 -22.65625 C 30.09375 -19.5 30.601562 -17.238281 31.625 -15.875 C 32.644531 -14.507812 34.265625 -13.828125 36.484375 -13.828125 C 38.796875 -13.828125 41.226562 -14.550781 43.78125 -16 Z M 50.578125 -3.203125 "/></g></g></g><g fill="#edf6f9" fill-opacity="1"><g transform="translate(1103.052953, 439.679316)"><g><path d="M 61.96875 -19.71875 C 61.96875 -17.15625 62.328125 -15.273438 63.046875 -14.078125 C 63.773438 -12.890625 64.953125 -11.992188 66.578125 -11.390625 L 62.34375 1.796875 C 58.164062 1.453125 54.753906 0.535156 52.109375 -0.953125 C 49.460938 -2.453125 47.414062 -4.820312 45.96875 -8.0625 C 41.53125 -1.238281 34.703125 2.171875 25.484375 2.171875 C 18.734375 2.171875 13.351562 0.207031 9.34375 -3.71875 C 5.332031 -7.644531 3.328125 -12.765625 3.328125 -19.078125 C 3.328125 -26.503906 6.054688 -32.179688 11.515625 -36.109375 C 16.984375 -40.035156 24.878906 -42 35.203125 -42 L 42.125 -42 L 42.125 -44.9375 C 42.125 -48.945312 41.269531 -51.695312 39.5625 -53.1875 C 37.851562 -54.6875 34.863281 -55.4375 30.59375 -55.4375 C 28.375 -55.4375 25.6875 -55.113281 22.53125 -54.46875 C 19.375 -53.832031 16.128906 -52.960938 12.796875 -51.859375 L 8.1875 -65.171875 C 12.457031 -66.785156 16.832031 -68.019531 21.3125 -68.875 C 25.789062 -69.726562 29.953125 -70.15625 33.796875 -70.15625 C 43.523438 -70.15625 50.648438 -68.148438 55.171875 -64.140625 C 59.703125 -60.128906 61.96875 -54.113281 61.96875 -46.09375 Z M 31.375 -12.296875 C 35.976562 -12.296875 39.5625 -14.472656 42.125 -18.828125 L 42.125 -30.859375 L 37.125 -30.859375 C 32.519531 -30.859375 29.085938 -30.046875 26.828125 -28.421875 C 24.566406 -26.796875 23.4375 -24.28125 23.4375 -20.875 C 23.4375 -18.132812 24.140625 -16.019531 25.546875 -14.53125 C 26.953125 -13.039062 28.894531 -12.296875 31.375 -12.296875 Z M 31.375 -12.296875 "/></g></g></g><g fill="#edf6f9" fill-opacity="1"><g transform="translate(1173.211446, 439.679316)"><g><path d="M 28.171875 -67.984375 L 28.171875 0 L 7.9375 0 L 7.9375 -67.984375 Z M 17.921875 -103.828125 C 21.421875 -103.828125 24.300781 -102.738281 26.5625 -100.5625 C 28.820312 -98.382812 29.953125 -95.632812 29.953125 -92.3125 C 29.953125 -88.976562 28.820312 -86.222656 26.5625 -84.046875 C 24.300781 -81.867188 21.421875 -80.78125 17.921875 -80.78125 C 14.421875 -80.78125 11.5625 -81.867188 9.34375 -84.046875 C 7.125 -86.222656 6.015625 -88.976562 6.015625 -92.3125 C 6.015625 -95.632812 7.125 -98.382812 9.34375 -100.5625 C 11.5625 -102.738281 14.421875 -103.828125 17.921875 -103.828125 Z M 17.921875 -103.828125 "/></g></g></g><g fill="#edf6f9" fill-opacity="1"><g transform="translate(1209.314898, 439.679316)"><g><path d="M 25.984375 2.171875 C 20.097656 2.171875 15.507812 0.488281 12.21875 -2.875 C 8.9375 -6.25 7.296875 -11.050781 7.296875 -17.28125 L 7.296875 -95 L 27.53125 -97.171875 L 27.53125 -18.046875 C 27.53125 -15.234375 28.679688 -13.828125 30.984375 -13.828125 C 32.179688 -13.828125 33.289062 -14.039062 34.3125 -14.46875 L 38.28125 -0.125 C 34.613281 1.40625 30.515625 2.171875 25.984375 2.171875 Z M 25.984375 2.171875 "/></g></g></g><g fill="#edf6f9" fill-opacity="1"><g transform="translate(1247.338719, 439.679316)"><g><path d="M 31.875 -70.15625 C 36.738281 -70.15625 41.304688 -69.429688 45.578125 -67.984375 C 49.847656 -66.535156 53.601562 -64.488281 56.84375 -61.84375 L 49.421875 -50.4375 C 43.867188 -53.9375 38.273438 -55.6875 32.640625 -55.6875 C 29.992188 -55.6875 27.96875 -55.238281 26.5625 -54.34375 C 25.15625 -53.445312 24.453125 -52.191406 24.453125 -50.578125 C 24.453125 -49.296875 24.769531 -48.25 25.40625 -47.4375 C 26.050781 -46.625 27.351562 -45.789062 29.3125 -44.9375 C 31.28125 -44.082031 34.3125 -43.054688 38.40625 -41.859375 C 45.488281 -39.816406 50.757812 -37.148438 54.21875 -33.859375 C 57.675781 -30.578125 59.40625 -26.035156 59.40625 -20.234375 C 59.40625 -15.617188 58.082031 -11.625 55.4375 -8.25 C 52.789062 -4.882812 49.160156 -2.304688 44.546875 -0.515625 C 39.941406 1.273438 34.820312 2.171875 29.1875 2.171875 C 23.46875 2.171875 18.15625 1.273438 13.25 -0.515625 C 8.34375 -2.304688 4.179688 -4.78125 0.765625 -7.9375 L 10.625 -18.953125 C 16.34375 -14.515625 22.359375 -12.296875 28.671875 -12.296875 C 31.742188 -12.296875 34.15625 -12.847656 35.90625 -13.953125 C 37.65625 -15.066406 38.53125 -16.644531 38.53125 -18.6875 C 38.53125 -20.3125 38.1875 -21.59375 37.5 -22.53125 C 36.820312 -23.46875 35.5 -24.34375 33.53125 -25.15625 C 31.570312 -25.96875 28.460938 -26.972656 24.203125 -28.171875 C 17.453125 -30.128906 12.410156 -32.859375 9.078125 -36.359375 C 5.753906 -39.859375 4.09375 -44.210938 4.09375 -49.421875 C 4.09375 -53.347656 5.222656 -56.867188 7.484375 -59.984375 C 9.742188 -63.097656 12.988281 -65.570312 17.21875 -67.40625 C 21.445312 -69.238281 26.332031 -70.15625 31.875 -70.15625 Z M 31.875 -70.15625 "/></g></g></g></svg>