<svg xmlns="http://www.w3.org/2000/svg" xmlns:xlink="http://www.w3.org/1999/xlink" width="500" zoomAndPan="magnify" viewBox="0 0 375 187.499995" height="250" preserveAspectRatio="xMidYMid meet" version="1.0"><defs><g/><clipPath id="3ac2093252"><path d="M 25 31.355469 L 122 31.355469 L 122 139.066406 L 25 139.066406 Z M 25 31.355469 " clip-rule="nonzero"/></clipPath></defs><g clip-path="url(#3ac2093252)"><path fill="#000000" d="M 106.589844 139.066406 L 86.582031 139.066406 L 63.820312 106.5625 L 63.820312 125.730469 L 45.644531 139.066406 L 25.089844 139.066406 L 25.089844 37.625 L 33.609375 31.355469 L 56.351562 31.355469 L 82.375 68.402344 L 82.375 44.714844 L 100.550781 31.355469 L 121.105469 31.355469 L 121.105469 128.441406 Z M 27.363281 38.78125 L 27.363281 135.699219 L 42.507812 124.570312 L 42.507812 72.167969 L 87.84375 136.878906 L 105.683594 136.878906 L 116.707031 128.84375 L 100.234375 128.84375 L 33.714844 34.089844 Z M 44.71875 136.941406 L 61.546875 124.570312 L 61.546875 103.324219 L 44.757812 79.257812 L 44.757812 125.730469 L 29.507812 136.941406 Z M 36.15625 33.625 L 101.5 126.738281 L 118.832031 126.738281 L 118.832031 33.625 L 102.046875 33.625 L 102.046875 100.441406 L 55.152344 33.625 Z M 84.625 71.683594 L 99.773438 93.308594 L 99.773438 34.699219 L 84.625 45.847656 Z M 84.625 71.683594 " fill-opacity="1" fill-rule="nonzero"/></g><g fill="#3b8696" fill-opacity="1"><g transform="translate(131.697431, 139.876524)"><g><path d="M 24.253906 0.636719 C 29.871094 0.636719 34.53125 -0.894531 38.296875 -3.957031 C 42.0625 -7.019531 43.976562 -10.785156 43.976562 -15.382812 L 43.976562 -47.871094 L 34.082031 -47.871094 L 34.082031 -17.234375 C 34.082031 -14.679688 33.125 -12.511719 31.210938 -10.785156 C 29.296875 -9.0625 27 -8.234375 24.253906 -8.234375 C 21.445312 -8.234375 19.148438 -9.0625 17.296875 -10.785156 C 15.445312 -12.511719 14.550781 -14.679688 14.550781 -17.234375 L 14.550781 -47.871094 L 4.59375 -47.871094 L 4.59375 -15.382812 C 4.59375 -10.851562 6.445312 -7.019531 10.210938 -3.957031 C 13.976562 -0.894531 18.636719 0.636719 24.253906 0.636719 Z M 24.253906 0.636719 "/></g></g></g><g fill="#3b8696" fill-opacity="1"><g transform="translate(180.268953, 139.876524)"><g><path d="M 34.660156 -39.0625 L 34.660156 -47.871094 L 5.234375 -47.871094 L 5.234375 0 L 34.660156 0 L 34.660156 -8.808594 L 15.191406 -8.808594 L 15.191406 -19.53125 L 31.976562 -19.53125 L 31.976562 -28.339844 L 15.191406 -28.339844 L 15.191406 -39.0625 Z M 34.660156 -39.0625 "/></g></g></g><g fill="#3b8696" fill-opacity="1"><g transform="translate(217.798593, 139.876524)"><g><path d="M 37.53125 -47.871094 L 23.933594 -10.59375 L 10.277344 -47.871094 L -0.894531 -47.871094 L 18.320312 0 L 29.488281 0 L 48.699219 -47.871094 Z M 37.53125 -47.871094 "/></g></g></g><g fill="#3b8696" fill-opacity="1"><g transform="translate(265.604201, 139.876524)"><g><path d="M 27.699219 0.636719 C 34.46875 0.636719 40.273438 -1.722656 45.0625 -6.511719 C 49.847656 -11.296875 52.273438 -17.105469 52.273438 -23.933594 C 52.273438 -30.699219 49.847656 -36.507812 45.0625 -41.296875 C 40.273438 -46.082031 34.46875 -48.507812 27.699219 -48.507812 C 20.871094 -48.507812 15.0625 -46.082031 10.277344 -41.296875 C 5.488281 -36.507812 3.128906 -30.699219 3.128906 -23.933594 C 3.128906 -17.105469 5.488281 -11.296875 10.277344 -6.511719 C 15.0625 -1.722656 20.871094 0.636719 27.699219 0.636719 Z M 27.699219 -9.128906 C 23.488281 -9.128906 19.976562 -10.53125 17.167969 -13.402344 C 14.296875 -16.210938 12.894531 -19.722656 12.894531 -23.933594 C 12.894531 -28.085938 14.296875 -31.59375 17.167969 -34.46875 C 19.976562 -37.273438 23.488281 -38.742188 27.699219 -38.742188 C 31.851562 -38.742188 35.359375 -37.273438 38.234375 -34.46875 C 41.042969 -31.59375 42.507812 -28.085938 42.507812 -23.933594 C 42.507812 -19.722656 41.042969 -16.210938 38.234375 -13.402344 C 35.359375 -10.53125 31.851562 -9.128906 27.699219 -9.128906 Z M 27.699219 -9.128906 "/></g></g></g><path stroke-linecap="butt" transform="matrix(0.606783, 0, 0, 0.606783, 123.241914, 79.14288)" fill="none" stroke-linejoin="miter" d="M 49.802043 97.050162 C 59.072247 97.050162 66.752353 94.533044 72.971114 89.479496 C 79.157687 84.41951 82.318569 78.226499 82.318569 70.655833 L 82.318569 17.107533 L 66.005586 17.107533 L 66.005586 67.597953 C 66.005586 71.808171 64.441239 75.381062 61.280357 78.226499 C 58.125913 81.052624 54.347018 82.443154 49.802043 82.443154 C 45.179817 82.443154 41.407359 81.052624 38.349479 78.226499 C 35.2916 75.381062 33.830255 71.808171 33.830255 67.597953 L 33.830255 17.107533 L 17.420708 17.107533 L 17.420708 70.655833 C 17.420708 78.123497 20.478587 84.41951 26.665161 89.479496 C 32.877484 94.533044 40.55759 97.050162 49.802043 97.050162 Z M 147.003988 31.617977 L 147.003988 17.107533 L 98.522112 17.107533 L 98.522112 96.000827 L 147.003988 96.000827 L 147.003988 81.490383 L 114.931659 81.490383 L 114.931659 63.819058 L 142.587766 63.819058 L 142.587766 49.282864 L 114.931659 49.282864 L 114.931659 31.617977 Z M 213.582073 17.107533 L 191.18552 78.535506 L 168.666651 17.107533 L 150.280747 17.107533 L 181.941067 96.000827 L 200.333408 96.000827 L 231.993727 17.107533 Z M 276.188134 97.050162 C 287.331691 97.050162 296.910901 93.148951 304.797012 85.262841 C 312.683122 77.383168 316.687335 67.803958 316.687335 56.550961 C 316.687335 45.407404 312.683122 35.828194 304.797012 27.942084 C 296.910901 20.062411 287.331691 16.05176 276.188134 16.05176 C 264.915824 16.05176 255.362365 20.062411 247.450504 27.942084 C 239.564393 35.828194 235.688933 45.407404 235.688933 56.550961 C 235.688933 67.803958 239.564393 77.383168 247.450504 85.262841 C 255.362365 93.148951 264.915824 97.050162 276.188134 97.050162 Z M 276.188134 80.949621 C 269.229044 80.949621 263.448042 78.638508 258.825816 73.913279 C 254.100587 69.291053 251.763723 63.490738 251.763723 56.550961 C 251.763723 49.720624 254.100587 43.920309 258.825816 39.19508 C 263.448042 34.572854 269.229044 32.158739 276.188134 32.158739 C 283.018471 32.158739 288.799473 34.572854 293.524702 39.19508 C 298.172679 43.920309 300.586794 49.720624 300.586794 56.550961 C 300.586794 63.490738 298.172679 69.291053 293.524702 73.913279 C 288.799473 78.638508 283.018471 80.949621 276.188134 80.949621 Z M 276.188134 80.949621 " stroke="#000000" stroke-width="3.944925" stroke-opacity="1" stroke-miterlimit="4"/></svg>